<svg width="682" height="84" viewBox="0 0 682 84" fill="none" xmlns="http://www.w3.org/2000/svg">
<path d="M1.015 19.905H12.32V63H1.015V19.905ZM6.2 1.71501H7.22C10.535 1.71501 13.17 4.01001 13.17 6.98501C13.17 10.13 10.535 12.34 7.22 12.34H6.2C2.885 12.34 0.25 10.13 0.25 6.98501C0.25 4.01001 2.885 1.71501 6.2 1.71501Z" fill="black"/>
<path d="M22.348 19.905H33.653V26.45H35.438C38.158 21.945 43.598 19.14 51.163 19.14H52.013C59.068 19.14 63.913 21.69 66.803 26.45H69.098C72.073 21.775 77.598 19.14 84.568 19.14H85.418C96.553 19.14 103.183 24.325 103.183 37.585V63H91.793V38.775C91.793 31.89 88.138 28.235 80.573 28.235H79.723C72.583 28.235 68.418 31.975 68.418 38.945V63H57.113V38.775C57.113 32.06 53.288 28.235 45.893 28.235H45.043C37.818 28.235 33.653 31.975 33.653 38.775V63H22.348V19.905Z" fill="black"/>
<path d="M112.827 19.905H124.132V26.535H126.087C129.912 21.605 135.692 19.14 143.172 19.14H145.212C157.877 19.14 167.567 25.94 167.567 40.135V42.77C167.567 57.135 157.877 63.765 145.212 63.765H143.172C135.352 63.765 129.657 61.215 126.087 56.37H124.132V83.4H112.827V19.905ZM139.177 27.98C130.337 27.98 124.132 32.145 124.132 40.135V42.855C124.132 50.93 130.422 54.925 139.177 54.925H141.132C150.142 54.925 156.177 50.675 156.177 42.855V40.135C156.177 32.315 150.142 27.98 141.132 27.98H139.177Z" fill="black"/>
<path d="M176.66 19.905H187.965V25.26H189.835C192.725 21.435 197.145 19.14 204.285 19.14C215.165 19.14 220.945 24.495 220.945 36.735V39.2H210.405V37.245C210.405 31.38 206.75 28.235 199.355 28.235C191.875 28.235 187.965 31.38 187.965 37.245V63H176.66V19.905Z" fill="black"/>
<path d="M252.782 19.14H275.5C289.95 19.14 301.255 26.11 301.255 40.22V43.96H237.737C237.822 51.61 243.262 55.775 252.782 55.775H275.5C283.49 55.775 288.675 53.48 290.29 48.635H300.83C299.215 57.39 291.055 63.765 275.5 63.765H252.782C238.162 63.765 226.942 57.135 226.942 42.855V40.22C226.942 26.11 238.162 19.14 252.782 19.14ZM252.697 27.13C244.027 27.13 238.672 30.53 237.822 36.905H290.46C289.61 30.615 283.83 27.13 275.5 27.13H252.697Z" fill="black"/>
<path d="M332.241 19.14H334.196C347.966 19.14 357.656 23.645 357.656 33.59V34.44H346.436V33.59C346.436 28.405 341.081 26.45 334.196 26.45H332.241C325.016 26.45 320.511 28.065 320.511 31.89C320.511 36.055 324.931 36.905 336.321 37.84C352.556 39.285 358.506 42.77 358.506 50.25V50.845C358.506 59.26 350.006 63.765 334.536 63.765H332.581C317.196 63.765 308.696 59.26 308.696 49.4V48.55H319.916V49.4C319.916 54.33 324.251 56.37 332.581 56.37H334.536C343.546 56.37 347.201 54.67 347.201 51.015C347.201 47.02 342.866 45.83 330.711 44.895C316.516 43.79 309.206 40.9 309.206 32.655V31.975C309.206 23.475 318.896 19.14 332.241 19.14Z" fill="black"/>
<path d="M366.841 19.905H378.146V63H366.841V19.905ZM372.026 1.71501H373.046C376.361 1.71501 378.996 4.01001 378.996 6.98501C378.996 10.13 376.361 12.34 373.046 12.34H372.026C368.711 12.34 366.076 10.13 366.076 6.98501C366.076 4.01001 368.711 1.71501 372.026 1.71501Z" fill="black"/>
<path d="M413.674 19.14H415.714C430.929 19.14 442.064 26.28 442.064 40.135V42.77C442.064 56.88 430.929 63.765 415.714 63.765H413.674C398.374 63.765 387.324 56.88 387.324 42.77V40.135C387.324 26.28 398.374 19.14 413.674 19.14ZM413.674 27.98C403.814 27.98 398.629 32.655 398.629 40.135V42.855C398.629 50.335 403.814 54.925 413.674 54.925H415.714C425.574 54.925 430.674 50.335 430.674 42.855V40.135C430.674 32.655 425.574 27.98 415.714 27.98H413.674ZM421.239 0.695007H433.649L419.539 13.445H409.594L421.239 0.695007Z" fill="black"/>
<path d="M451.26 19.905H462.565V26.365H464.605C467.58 22.03 473.105 19.14 481.095 19.14H482.71C495.035 19.14 501.75 25.6 501.75 38.52V63H490.445V40.22C490.445 32.655 486.28 28.32 477.44 28.32H475.825C467.325 28.32 462.565 32.74 462.565 40.22V63H451.26V19.905Z" fill="black"/>
<path d="M533.737 6.05001H585.672V15.655L566.717 26.96V29.17C578.022 29.85 588.222 33.93 588.222 44.895V46.425C588.222 59.175 576.407 63.765 559.917 63.765H559.067C542.577 63.765 530.337 59.175 530.337 45.745V41.835H541.982V45.745C541.982 52.035 548.527 54.84 559.067 54.84H559.917C570.457 54.84 576.492 52.205 576.492 46.17V44.725C576.492 38.52 570.542 35.885 559.577 35.885H549.547V29.085L568.247 17.95V15.655H533.737V6.05001Z" fill="black"/>
<path d="M596.704 6.05001H652C671.295 6.05001 682.005 13.7 682.005 31.295V38.01C682.005 55.52 671.635 63 652 63H596.704V6.05001ZM608.349 15.655V53.395H652C664.92 53.395 670.105 48.55 670.105 38.01V31.295C670.105 20.755 665.005 15.655 652 15.655H608.349Z" fill="black"/>
</svg>
