<svg width="578" height="64" viewBox="0 0 578 64" fill="none" xmlns="http://www.w3.org/2000/svg">
<path d="M29.13 5.28501H31.17C47.83 5.28501 58.795 11.32 58.795 23.56V26.535H47.575V23.56C47.575 16.93 41.03 14.21 31.085 14.21H29.13C19.015 14.21 12.725 16.845 12.725 21.265V22.2C12.725 27.13 17.57 28.235 34.315 30.19C52.505 32.485 59.985 36.99 59.985 46.595V47.615C59.985 57.39 50.04 63.765 31.425 63.765H29.47C10.345 63.765 0.484985 57.305 0.484985 44.98V41.92H11.705V44.98C11.705 52.375 18.08 54.755 29.47 54.755H31.51C42.305 54.755 48.595 52.46 48.595 47.785V46.765C48.595 42.09 43.325 40.39 27.005 38.52C10.175 36.65 1.33499 32.74 1.33499 22.71V21.69C1.33499 11.32 12.045 5.28501 29.13 5.28501Z" fill="black"/>
<path d="M93.5892 19.14H115.79C131.005 19.14 142.14 26.28 142.14 40.135V42.77C142.14 56.88 131.005 63.765 115.79 63.765H93.5892C78.2892 63.765 67.2392 56.88 67.2392 42.77V40.135C67.2392 26.28 78.2892 19.14 93.5892 19.14ZM93.5892 27.98C83.7292 27.98 78.5442 32.655 78.5442 40.135V42.855C78.5442 50.335 83.7292 54.925 93.5892 54.925H115.79C125.65 54.925 130.75 50.335 130.75 42.855V40.135C130.75 32.655 125.65 27.98 115.79 27.98H93.5892Z" fill="black"/>
<path d="M151.336 0.100006H162.641V63H151.336V0.100006Z" fill="black"/>
<path d="M172.669 19.905H183.974V63H172.669V19.905ZM177.854 1.71501H178.874C182.189 1.71501 184.824 4.01001 184.824 6.985C184.824 10.13 182.189 12.34 178.874 12.34H177.854C174.539 12.34 171.904 10.13 171.904 6.985C171.904 4.01001 174.539 1.71501 177.854 1.71501Z" fill="black"/>
<path d="M219.077 19.14H221.032C235.652 19.14 246.617 25.175 246.617 37.415H235.312C235.312 31.55 229.787 27.98 221.032 27.98H219.077C209.897 27.98 204.457 32.485 204.457 40.305V43.025C204.457 50.675 209.897 54.925 219.077 54.925H221.032C229.617 54.925 235.567 51.695 235.567 45.915H246.872C246.872 57.645 235.652 63.765 221.032 63.765H219.077C203.522 63.765 193.152 56.965 193.152 43.025V40.305C193.152 26.365 203.522 19.14 219.077 19.14Z" fill="black"/>
<path d="M256.092 19.905H267.397V63H256.092V19.905ZM261.277 1.71501H262.297C265.612 1.71501 268.247 4.01001 268.247 6.985C268.247 10.13 265.612 12.34 262.297 12.34H261.277C257.962 12.34 255.327 10.13 255.327 6.985C255.327 4.01001 257.962 1.71501 261.277 1.71501Z" fill="black"/>
<path d="M281.25 7.92001H292.555V19.905H318.735V28.065H292.555V47.02C292.555 52.29 295.445 55.265 300.715 55.265H302.67C307.77 55.265 310.66 52.29 310.66 47.02V44.81H320.775V47.02C320.775 58.665 313.465 63.765 302.84 63.765H300.885C289.41 63.765 281.25 58.665 281.25 47.02V28.065H273.6V19.905H281.25V7.92001Z" fill="black"/>
<path d="M352.113 19.14H354.153C370.048 19.14 377.783 24.92 377.783 34.865V63H366.478V56.965H364.183C359.763 61.725 353.643 63.765 344.973 63.765C334.433 63.765 327.293 59.6 327.293 50.76C327.293 42.005 333.668 37.415 347.098 37.415H366.478V34.865C366.478 29.34 361.888 26.875 354.068 26.875H352.113C344.633 26.875 339.788 29.255 339.788 34.61H328.483C328.483 24.835 336.388 19.14 352.113 19.14ZM348.798 43.96C341.743 43.96 338.768 45.745 338.768 49.74C338.768 53.65 342.168 55.69 349.733 55.69C356.788 55.69 366.478 53.48 366.478 46.085V43.96H348.798Z" fill="black"/>
<path d="M457.559 63H446.254V56.54H444.214C441.239 60.875 435.714 63.765 427.724 63.765H426.109C413.784 63.765 407.069 57.305 407.069 44.385V19.905H418.374V42.685C418.374 50.25 422.539 54.585 431.379 54.585H432.994C441.494 54.585 446.254 50.165 446.254 42.685V19.905H457.559V63Z" fill="black"/>
<path d="M467.762 19.905H479.067V26.365H481.107C484.082 22.03 489.607 19.14 497.597 19.14H499.212C511.537 19.14 518.252 25.6 518.252 38.52V63H506.947V40.22C506.947 32.655 502.782 28.32 493.942 28.32H492.327C483.827 28.32 479.067 32.74 479.067 40.22V63H467.762V19.905Z" fill="black"/>
<path d="M551.83 19.14H553.87C569.765 19.14 577.5 24.92 577.5 34.865V63H566.195V56.965H563.9C559.48 61.725 553.36 63.765 544.69 63.765C534.15 63.765 527.01 59.6 527.01 50.76C527.01 42.005 533.385 37.415 546.815 37.415H566.195V34.865C566.195 29.34 561.605 26.875 553.785 26.875H551.83C544.35 26.875 539.505 29.255 539.505 34.61H528.2C528.2 24.835 536.105 19.14 551.83 19.14ZM548.515 43.96C541.46 43.96 538.485 45.745 538.485 49.74C538.485 53.65 541.885 55.69 549.45 55.69C556.505 55.69 566.195 53.48 566.195 46.085V43.96H548.515Z" fill="black"/>
</svg>
