<svg width="747" height="106" viewBox="0 0 747 106" fill="none" xmlns="http://www.w3.org/2000/svg">
<path d="M0 9.89333H24.3562L56.174 83.952H62.2279L93.7642 9.89333H117.135L96.9319 57.24L76.7289 104.587H40.6875L0 9.89333Z" fill="black"/>
<path d="M161.2 30.6693H252.525C279.415 30.6693 298.28 42.5413 298.28 65.8613V70.6667C298.28 94.4107 279.415 105.859 252.525 105.859H161.2C134.169 105.859 115.444 94.4107 115.444 70.6667V65.8613C115.444 42.5413 134.169 30.6693 161.2 30.6693ZM161.2 48.76C145.432 48.76 138.815 55.544 138.815 65.72V70.808C138.815 81.1253 145.432 87.9093 161.2 87.9093H252.525C268.293 87.9093 274.909 81.1253 274.909 70.808V65.72C274.909 55.544 268.293 48.76 252.525 48.76H161.2Z" fill="black"/>
<path d="M312.862 0H336.232V104.587H312.862V0Z" fill="black"/>
<path d="M440.027 104.587H416.657V94.128H413.279C408.492 101.336 399.341 106 386.107 106H383.01C362.315 106 351.475 95.2587 351.475 73.352V32.0827H374.844V69.536C374.844 80.7013 380.757 87.2027 393.991 87.2027H397.229C410.181 87.2027 416.657 80.56 416.657 69.536V32.0827H440.027V104.587Z" fill="black"/>
<path d="M456.257 32.0827H479.627V42.6827H482.722C487.227 35.192 496.66 30.6693 509.472 30.6693H510.88C522.565 30.6693 530.731 34.768 535.518 42.6827H539.037C544.105 34.9093 553.679 30.6693 564.942 30.6693H566.35C585.496 30.6693 596.337 39.2907 596.337 61.48V104.587H572.967V64.448C572.967 54.696 567.617 49.3253 556.213 49.3253H554.805C543.683 49.3253 537.911 54.8373 537.911 64.5893V104.587H514.54V64.448C514.54 54.9787 509.19 49.3253 497.927 49.3253H496.519C485.397 49.3253 479.627 54.8373 479.627 64.448V104.587H456.257V32.0827Z" fill="black"/>
<path d="M654.976 30.6693H702.514C727.855 30.6693 747 42.2587 747 66.2853V73.4933H632.169C632.45 83.952 640.335 89.888 654.976 89.888H702.514C714.199 89.888 721.94 87.2027 724.615 80.2773H746.155C743.621 94.8347 730.248 105.859 702.514 105.859H654.976C629.494 105.859 610.206 94.8347 610.206 71.0907V66.2853C610.206 42.2587 629.353 30.6693 654.976 30.6693ZM654.835 46.7813C641.602 46.7813 634.14 51.304 632.45 59.5013H724.896C723.207 51.4453 714.903 46.7813 702.514 46.7813H654.835Z" fill="black"/>
</svg>
