<?xml version="1.0" encoding="utf-8"?>
<!-- Generator: Adobe Illustrator 26.0.0, SVG Export Plug-In . SVG Version: 6.00 Build 0)  -->
<svg version="1.1" id="Capa_1" xmlns="http://www.w3.org/2000/svg" xmlns:xlink="http://www.w3.org/1999/xlink" x="0px" y="0px"
	 viewBox="0 0 1083.2 519" style="enable-background:new 0 0 1083.2 519;" xml:space="preserve">
<style type="text/css">
	.st0{fill:#F9ECEE;}
	.st1{fill:#9C9B9A;}
	.st2{fill:#7FBDC3;}
	.st3{fill:#BCABAF;}
	.st4{fill:#020203;}
	.st5{fill:#CFE09D;}
</style>
<path class="st0" d="M908.6,404.4l17.5-181l-61.5,136L908.6,404.4z"/>
<g>
	<path class="st1" d="M664.7,443.3l16-184.5l77.5-6.5l-16,32l18,69.5l-40,47.5l-33,29L664.7,443.3z"/>
	<path class="st2" d="M1010.2,331.8l-78.5-79.5l-5.5,13l-17.5,183L1010.2,331.8z"/>
	<path class="st3" d="M1083.2,407.3l-73-75.5L908.7,448.3l89-19L1083.2,407.3z"/>
</g>
<g>
	<path class="st4" d="M0,375h34.6l45.2,104.8h8.6L133.2,375h33.2l-28.7,67L109,509H57.8L0,375z"/>
	<path class="st4" d="M229,404.4h129.7c38.2,0,65,16.8,65,49.8v6.8c0,33.6-26.8,49.8-65,49.8H229c-38.4,0-65-16.2-65-49.8v-6.8
		C164,421.2,190.6,404.4,229,404.4z M229,430c-22.4,0-31.8,9.6-31.8,24v7.2c0,14.6,9.4,24.2,31.8,24.2h129.7
		c22.4,0,31.8-9.6,31.8-24.2V454c0-14.4-9.4-24-31.8-24H229z"/>
	<path class="st4" d="M444.4,361h33.2v148h-33.2V361z"/>
	<path class="st4" d="M625.1,509h-33.2v-14.8h-4.8c-6.8,10.2-19.8,16.8-38.6,16.8h-4.4c-29.4,0-44.8-15.2-44.8-46.2v-58.4h33.2v53
		c0,15.8,8.4,25,27.2,25h4.6c18.4,0,27.6-9.4,27.6-25v-53h33.2V509z"/>
	<path class="st4" d="M648.2,406.4h33.2v15h4.4c6.4-10.6,19.8-17,38-17h2c16.6,0,28.2,5.8,35,17h5c7.2-11,20.8-17,36.8-17h2
		c27.2,0,42.6,12.2,42.6,43.6v61h-33.2v-56.8c0-13.8-7.6-21.4-23.8-21.4h-2c-15.8,0-24,7.8-24,21.6V509h-33.2v-56.8
		c0-13.4-7.6-21.4-23.6-21.4h-2c-15.8,0-24,7.8-24,21.4V509h-33.2V406.4z"/>
	<path class="st4" d="M930.5,404.4H998c36,0,63.2,16.4,63.2,50.4V465H898c0.4,14.8,11.6,23.2,32.4,23.2H998
		c16.6,0,27.6-3.8,31.4-13.6h30.6c-3.6,20.6-22.6,36.2-62,36.2h-67.5c-36.2,0-63.6-15.6-63.6-49.2v-6.8
		C866.8,420.8,894,404.4,930.5,404.4z M930.2,427.2c-18.8,0-29.4,6.4-31.8,18h131.3c-2.4-11.4-14.2-18-31.8-18H930.2z"/>
</g>
<g>
	<path class="st5" d="M828.6,130.5l-133-97l204.5-34L828.6,130.5z"/>
	<path class="st5" d="M938.6,235L901.1,0.5l-69.5,132l27.5,22.5l24.5,23.5L938.6,235z"/>
	<path class="st0" d="M742.6,285.5L826.1,130l111,105l-97,25.5L742.6,285.5z"/>
	<path class="st2" d="M869.6,164l-43.5-36l-14.5,28l118,77.5h7.5l-24-25.5L869.6,164z"/>
	<path class="st3" d="M879.6,371.5l-137-86l60,235.5L879.6,371.5z"/>
	<path class="st5" d="M878.1,369.5l-135.5-84L939.1,235L878.1,369.5z"/>
	<path class="st3" d="M680.6,259l122-147l12,8l11.5,8.5l-68,124l-38.5,3.5L680.6,259z"/>
	<path class="st1" d="M789.6,127.5l-93-92.5l106.5,77L789.6,127.5z"/>
	<path class="st1" d="M831.6,134.5l-3-2L899.6,3l1,0.5L831.6,134.5z"/>
</g>
</svg>
