<?xml version="1.0" ?><!DOCTYPE svg  PUBLIC '-//W3C//DTD SVG 1.1//EN'  'http://www.w3.org/Graphics/SVG/1.1/DTD/svg11.dtd'><!-- Uploaded to: SVG Repo, www.svgrepo.com, Generator: SVG Repo Mixer Tools -->
<svg fill="#000000" width="800px" height="800px" viewBox="0 0 32 32" style="fill-rule:evenodd;clip-rule:evenodd;stroke-linejoin:round;stroke-miterlimit:2;" version="1.1" xml:space="preserve" xmlns="http://www.w3.org/2000/svg" xmlns:serif="http://www.serif.com/" xmlns:xlink="http://www.w3.org/1999/xlink"><path d="M25.468,14.508l-20.967,-0.008c-0.828,-0 -1.501,0.672 -1.501,1.499c-0,0.828 0.672,1.501 1.499,1.501l21.125,0.009c-0.107,0.159 -0.234,0.306 -0.377,0.439c-3.787,3.502 -9.68,8.951 -9.68,8.951c-0.608,0.562 -0.645,1.511 -0.083,2.119c0.562,0.608 1.512,0.645 2.12,0.083c-0,0 5.892,-5.448 9.68,-8.95c1.112,-1.029 1.751,-2.47 1.766,-3.985c0.014,-1.515 -0.596,-2.968 -1.688,-4.018l-9.591,-9.221c-0.596,-0.574 -1.547,-0.556 -2.121,0.041c-0.573,0.597 -0.555,1.547 0.042,2.121l9.591,9.221c0.065,0.063 0.127,0.129 0.185,0.198Z"/><g id="Icon"/></svg>